<?xml version="1.0" encoding="UTF-8"?>
<svg width="150px" height="40px" viewBox="0 0 150 40" version="1.1" xmlns="http://www.w3.org/2000/svg" xmlns:xlink="http://www.w3.org/1999/xlink">
    <title>Logo_icon_text_pos</title>
    <g id="Symbols" stroke="none" stroke-width="1" fill="none" fill-rule="evenodd">
        <g id="Nav/Desktop" transform="translate(-24.000000, -18.000000)" fill-rule="nonzero">
            <g id="Logo_icon_text_pos" transform="translate(24.000000, 18.000000)">
                <path d="M56.71875,30.6914062 C56.5287755,30.1950693 56.4104013,29.6742228 56.3671875,29.1445312 C55.2908228,30.3123424 53.7717448,30.9718861 52.1835938,30.9609375 C50.8798903,31.0145265 49.6038133,30.5752213 48.609375,29.7304687 C47.6974891,28.9554325 47.1849065,27.8096595 47.2148438,26.6132812 C47.1548318,25.2032227 47.8118001,23.8584218 48.9609375,23.0390625 C50.4314392,22.0978603 52.1638836,21.6503806 53.90625,21.7617187 L56.3554688,21.7617187 L56.3554688,20.5898437 C56.3928059,19.8068012 56.1043467,19.0432328 55.5585938,18.4804687 C54.9147511,17.9141605 54.0698991,17.6311351 53.2148438,17.6953125 C52.407187,17.6706785 51.6134048,17.9092244 50.953125,18.375 C50.3933282,18.7401665 50.050951,19.359079 50.0390625,20.0273437 L47.5078125,20.0273437 C47.5261752,19.2490847 47.8023308,18.4989307 48.2929688,17.8945312 C48.8503006,17.1986733 49.5708496,16.6512171 50.390625,16.3007812 C51.3193499,15.8864888 52.3268903,15.6785836 53.34375,15.6914062 C54.783817,15.6123164 56.2024657,16.0671185 57.328125,16.96875 C58.3133452,17.8673877 58.8569513,19.1514967 58.8164063,20.484375 L58.8164063,27.2578125 C58.7805779,28.3543856 58.9679633,29.4468027 59.3671875,30.46875 L59.3671875,30.6914062 L56.71875,30.6914062 Z M52.546875,28.7695312 C53.3375316,28.7610871 54.1110911,28.5383343 54.7851563,28.125 C55.4526277,27.7657569 55.9928683,27.2091454 56.3320313,26.53125 L56.3320313,23.5429687 L54.3515625,23.5429687 C51.2734375,23.5429687 49.734375,24.4453125 49.734375,26.25 C49.6865429,26.963717 49.9774104,27.6583259 50.5195313,28.125 C51.0949196,28.5783444 51.8153282,28.8073761 52.546875,28.7695312 L52.546875,28.7695312 Z" id="Shape" fill="#1D1D1B"></path>
                <path d="M62.1796875,23.203125 C62.0887577,21.2580918 62.6541856,19.3389387 63.7851562,17.7539063 C64.779198,16.5043147 66.2703497,15.7523811 67.8661012,15.696034 C69.4618528,15.6396868 71.0023271,16.2845714 72.0820312,17.4609375 L72.0820312,9.796875 L74.6015625,9.796875 L74.6015625,30.6914063 L72.2578125,30.6914063 L72.1289062,29.109375 C71.1068206,30.341565 69.5683372,31.0262984 67.96875,30.9609375 C66.3203054,30.993424 64.7626175,30.2079982 63.8085937,28.8632813 C62.6735338,27.2880369 62.0999444,25.3774477 62.1796875,23.4375 L62.1796875,23.203125 Z M64.6992187,23.4960938 C64.6179055,24.8772582 64.9791556,26.2483665 65.7304687,27.4101563 C66.3800101,28.3388137 67.4574641,28.873125 68.5898437,28.828125 C70.0930936,28.8986301 71.4868899,28.0437683 72.1054688,26.671875 L72.1054688,19.921875 C71.4548403,18.588707 70.0713978,17.7724759 68.5898438,17.8476563 C67.4475384,17.7993691 66.359913,18.3387605 65.7070312,19.2773438 C64.9422696,20.5452761 64.5901166,22.019405 64.6992187,23.4960938 Z" id="Shape" fill="#1D1D1B"></path>
                <polygon id="Path" fill="#1D1D1B" points="83.3671875 27.28125 87.0117188 15.9726563 89.578125 15.9726563 84.3046875 30.6914063 82.3828125 30.6914063 77.0507812 15.9726562 79.6171875 15.9726562"></polygon>
                <path d="M101.085938,30.6914063 C100.895963,30.1950693 100.777589,29.6742228 100.734375,29.1445313 C99.6580103,30.3123424 98.1389323,30.9718861 96.5507813,30.9609375 C95.2670452,30.9997742 94.0144816,30.561377 93.0351563,29.7304688 C92.1273925,28.9523476 91.6157349,27.8086423 91.640625,26.6132813 C91.580613,25.2032227 92.2375813,23.8584218 93.3867187,23.0390625 C94.850632,22.1027009 96.5740862,21.6554235 98.3085938,21.7617188 L100.757812,21.7617188 L100.757812,20.5898438 C100.79515,19.8068012 100.50669,19.0432328 99.9609375,18.4804688 C99.317773,17.9129834 98.4724106,17.629787 97.6171875,17.6953125 C96.8095307,17.6706785 96.0157486,17.9092244 95.3554687,18.375 C94.7956719,18.7401665 94.4532948,19.359079 94.4414062,20.0273438 L91.875,20.0273438 C91.8933627,19.2490847 92.1695183,18.4989307 92.6601563,17.8945313 C93.22126,17.187017 93.9504182,16.6310842 94.78125,16.2773438 C95.7099749,15.8630513 96.7175153,15.6551461 97.734375,15.6679688 C99.174442,15.5888789 100.593091,16.043681 101.71875,16.9453125 C102.695523,17.850853 103.240939,19.1291733 103.21875,20.4609375 L103.21875,27.234375 C103.169183,28.3363297 103.344625,29.4368315 103.734375,30.46875 L103.734375,30.6914063 L101.085938,30.6914063 Z M96.9140625,28.7695313 C97.7081156,28.7591507 98.4849479,28.5366206 99.1640625,28.125 C99.8258011,27.7620343 100.361283,27.2061141 100.699219,26.53125 L100.699219,23.5429688 L98.71875,23.5429688 C95.640625,23.5429688 94.1015625,24.4453125 94.1015625,26.25 C94.0623163,26.9696986 94.3666735,27.6653723 94.921875,28.125 C95.4889467,28.568439 96.1947112,28.7967745 96.9140625,28.7695312 L96.9140625,28.7695313 Z" id="Shape" fill="#1D1D1B"></path>
                <path d="M109.535156,15.9726563 L109.617188,17.8242188 C110.661024,16.444003 112.305156,15.650284 114.035156,15.6914063 C117.160156,15.6914063 118.722656,17.4492188 118.722656,20.9648438 L118.722656,30.6914063 L116.214844,30.6914063 L116.214844,20.953125 C116.281214,20.1077163 116.021212,19.2690006 115.488281,18.609375 C114.888232,18.0503117 114.078468,17.7732871 113.261719,17.8476563 C112.494982,17.8306635 111.743112,18.0607439 111.117187,18.5039063 C110.493822,18.9366638 109.996433,19.5270607 109.675781,20.2148438 L109.675781,30.7617188 L107.15625,30.7617188 L107.15625,15.9726563 L109.535156,15.9726563 Z" id="Path" fill="#1D1D1B"></path>
                <path d="M128.4375,28.9101563 C129.291513,28.924574 130.122627,28.633684 130.78125,28.0898438 C131.44741,27.6107394 131.874523,26.8675624 131.953125,26.0507813 L134.296875,26.0507813 C134.24458,26.9182381 133.943515,27.7522701 133.429688,28.453125 C132.868339,29.2360271 132.118676,29.8647765 131.25,30.28125 C130.373143,30.7326871 129.400293,30.9658496 128.414062,30.9609375 C126.60088,31.041331 124.846847,30.3061849 123.632812,28.9570312 C122.377279,27.4017328 121.75011,25.4324237 121.875,23.4375 L121.875,23.015625 C121.852573,21.6987116 122.124838,20.393442 122.671875,19.1953125 C123.157964,18.1274145 123.94368,17.2236374 124.933594,16.59375 C125.993389,15.9566464 127.213092,15.635458 128.449219,15.6679687 C129.961025,15.6144863 131.434933,16.1477806 132.5625,17.15625 C133.667319,18.1663579 134.293135,19.596793 134.285156,21.09375 L131.941406,21.09375 C131.892021,20.2041056 131.506676,19.3664001 130.863281,18.75 C130.227718,18.1567249 129.388943,17.8296026 128.519531,17.8359375 C127.359865,17.7770325 126.245912,18.2945385 125.542969,19.21875 C124.763894,20.3996149 124.393415,21.8033199 124.488281,23.2148438 L124.488281,23.6835938 C124.401169,25.0723041 124.771642,26.45129 125.542969,27.609375 C126.246108,28.4785331 127.320715,28.9614539 128.4375,28.9101563 L128.4375,28.9101563 Z" id="Path" fill="#1D1D1B"></path>
                <path d="M136.453125,23.1914062 C136.431413,21.8468996 136.720149,20.5155063 137.296875,19.3007813 C138.360887,17.0416822 140.659993,15.6254325 143.15625,15.6914063 C145.006656,15.6301023 146.788586,16.3944002 148.019531,17.7773438 C149.315365,19.3244297 149.976954,21.3050075 149.871094,23.3203125 L149.871094,23.4960938 C149.90064,24.8275026 149.619789,26.1475055 149.050781,27.3515625 C148.54174,28.4453087 147.727947,29.3689636 146.707031,30.0117188 C145.648931,30.6552237 144.4296,30.9844432 143.191406,30.9609375 C141.326117,31.0427016 139.523005,30.2810047 138.28125,28.8867188 C136.996142,27.3428219 136.335602,25.3737435 136.429687,23.3671875 L136.453125,23.1914062 Z M138.984375,23.4960938 C138.922516,24.8992233 139.33536,26.2822524 140.15625,27.421875 C140.881445,28.36769 142.005429,28.9222357 143.197266,28.9222357 C144.389102,28.9222357 145.513086,28.36769 146.238281,27.421875 C147.080259,26.1862509 147.492078,24.7078212 147.410156,23.2148438 C147.465663,21.8125068 147.053424,20.4315041 146.238281,19.2890625 C145.524205,18.3203932 144.382773,17.7606106 143.179687,17.7890625 C141.995045,17.7605977 140.870972,18.3116997 140.167969,19.265625 C139.321671,20.5085189 138.905932,21.9944775 138.984375,23.4960938 L138.984375,23.4960938 Z" id="Shape" fill="#1D1D1B"></path>
                <path d="M20.9648438,29.6015625 C18.5895664,27.9674193 16.4213739,26.0510677 14.5078125,23.8945313 C12.5500726,21.651208 10.8880815,19.166098 9.5625,16.5 C6.13301919,17.988917 2.96709417,20.0230238 0.1875,22.5234375 C1.18803681,29.8021821 6.29384889,35.852501 13.3007813,38.0625 C16.3064057,35.6860843 18.8963509,32.8268481 20.9648438,29.6015625 L20.9648438,29.6015625 Z" id="Path" fill="#DFDC01"></path>
                <path d="M18.09375,14.0625 C20.8377165,13.633493 23.6232332,13.5351344 26.390625,13.7695312 C26.728445,9.83572219 26.3955855,5.87310925 25.40625,2.05078125 C23.359628,1.32135049 21.2039617,0.94490142 19.03125,0.9375 C14.295724,0.914674689 9.72434598,2.6712884 6.22265625,5.859375 C6.7577178,9.53260346 7.88567684,13.0945794 9.5625,16.40625 C12.2950955,15.2656319 15.1619553,14.4780331 18.09375,14.0625 L18.09375,14.0625 Z" id="Path" fill="#A4ABB1"></path>
                <path d="M6.22265625,5.859375 C2.25050328,9.45408816 -0.0109210379,14.5646516 -3.93732048e-05,19.921875 C0.00717851147,20.7925834 0.0737392406,21.6617882 0.19921875,22.5234375 C2.97881292,20.0230238 6.14473794,17.988917 9.57421875,16.5 C7.88366361,13.1598638 6.75149498,9.56542631 6.22265625,5.859375 L6.22265625,5.859375 Z" id="Path" fill="#8D9501"></path>
                <path d="M24.7148437,21.84375 C23.7923593,24.5755872 22.5326294,27.1816534 20.9648437,29.6015625 C24.1209436,31.7688382 27.6132203,33.4001512 31.3007812,34.4296875 C36.4988229,30.1004745 38.9618723,23.3069366 37.7460937,16.6523437 C34.1562097,15.0319464 30.3157416,14.0371502 26.390625,13.7109375 C26.1552692,16.4785559 25.5927528,19.2085309 24.7148437,21.84375 L24.7148437,21.84375 Z" id="Path" fill="#076B69"></path>
                <path d="M13.3007812,38.0625 C15.1555062,38.6435471 17.0876405,38.9398868 19.03125,38.9414193 C23.5278895,38.9466912 27.8787584,37.3468015 31.3007812,34.4296875 C27.6132203,33.4001512 24.1209436,31.7688382 20.9648438,29.6015625 C18.8963509,32.8268481 16.3064057,35.6860843 13.3007812,38.0625 L13.3007812,38.0625 Z" id="Path" fill="#10682E"></path>
                <path d="M26.390625,13.7109375 C30.3157416,14.0371502 34.1562097,15.0319464 37.7460938,16.6523437 C36.7521044,10.9469337 33.2097322,6.00659739 28.125,3.234375 L27.9960938,3.1640625 C27.515625,2.90625 27.0234375,2.671875 26.5195312,2.44921875 L26.2617188,2.34375 C25.9804688,2.2265625 25.6875,2.1328125 25.40625,2.02734375 C26.3916097,5.83837556 26.7244406,9.78876153 26.390625,13.7109375 Z" id="Path" fill="#004C4A"></path>
            </g>
        </g>
    </g>
</svg>